<mxfile host="Electron" modified="2023-05-01T14:40:21.831Z" agent="Mozilla/5.0 (Windows NT 10.0; Win64; x64) AppleWebKit/537.36 (KHTML, like Gecko) draw.io/21.2.1 Chrome/112.0.5615.87 Electron/24.1.2 Safari/537.36" etag="UtVkC8On-zA7bvjAe-j1" version="21.2.1" type="device">
  <diagram id="C5RBs43oDa-KdzZeNtuy" name="Page-1">
    <mxGraphModel dx="1687" dy="1005" grid="1" gridSize="10" guides="1" tooltips="1" connect="1" arrows="1" fold="1" page="1" pageScale="1" pageWidth="827" pageHeight="1169" math="0" shadow="0">
      <root>
        <mxCell id="WIyWlLk6GJQsqaUBKTNV-0" />
        <mxCell id="WIyWlLk6GJQsqaUBKTNV-1" parent="WIyWlLk6GJQsqaUBKTNV-0" />
        <mxCell id="zbCJpAc25oDW_2lIFPGl-3" style="edgeStyle=orthogonalEdgeStyle;rounded=0;orthogonalLoop=1;jettySize=auto;html=1;exitX=0.5;exitY=1;exitDx=0;exitDy=0;entryX=0.558;entryY=0;entryDx=0;entryDy=0;entryPerimeter=0;" edge="1" parent="WIyWlLk6GJQsqaUBKTNV-1" source="zbCJpAc25oDW_2lIFPGl-0" target="zbCJpAc25oDW_2lIFPGl-1">
          <mxGeometry relative="1" as="geometry" />
        </mxCell>
        <mxCell id="zbCJpAc25oDW_2lIFPGl-0" value="start" style="rounded=1;whiteSpace=wrap;html=1;" vertex="1" parent="WIyWlLk6GJQsqaUBKTNV-1">
          <mxGeometry x="354" y="40" width="120" height="30" as="geometry" />
        </mxCell>
        <mxCell id="zbCJpAc25oDW_2lIFPGl-4" style="edgeStyle=orthogonalEdgeStyle;rounded=0;orthogonalLoop=1;jettySize=auto;html=1;exitX=0.5;exitY=1;exitDx=0;exitDy=0;entryX=0.583;entryY=-0.05;entryDx=0;entryDy=0;entryPerimeter=0;" edge="1" parent="WIyWlLk6GJQsqaUBKTNV-1" source="zbCJpAc25oDW_2lIFPGl-1" target="zbCJpAc25oDW_2lIFPGl-2">
          <mxGeometry relative="1" as="geometry" />
        </mxCell>
        <mxCell id="zbCJpAc25oDW_2lIFPGl-1" value="Problem Identify" style="shape=parallelogram;perimeter=parallelogramPerimeter;whiteSpace=wrap;html=1;fixedSize=1;" vertex="1" parent="WIyWlLk6GJQsqaUBKTNV-1">
          <mxGeometry x="354" y="100" width="120" height="40" as="geometry" />
        </mxCell>
        <mxCell id="zbCJpAc25oDW_2lIFPGl-6" style="edgeStyle=orthogonalEdgeStyle;rounded=0;orthogonalLoop=1;jettySize=auto;html=1;exitX=0.5;exitY=1;exitDx=0;exitDy=0;entryX=0.583;entryY=0;entryDx=0;entryDy=0;entryPerimeter=0;" edge="1" parent="WIyWlLk6GJQsqaUBKTNV-1" source="zbCJpAc25oDW_2lIFPGl-2" target="zbCJpAc25oDW_2lIFPGl-5">
          <mxGeometry relative="1" as="geometry" />
        </mxCell>
        <mxCell id="zbCJpAc25oDW_2lIFPGl-2" value="research questions" style="rounded=0;whiteSpace=wrap;html=1;" vertex="1" parent="WIyWlLk6GJQsqaUBKTNV-1">
          <mxGeometry x="354" y="180" width="120" height="40" as="geometry" />
        </mxCell>
        <mxCell id="zbCJpAc25oDW_2lIFPGl-5" value="overall objectives" style="shape=parallelogram;perimeter=parallelogramPerimeter;whiteSpace=wrap;html=1;fixedSize=1;" vertex="1" parent="WIyWlLk6GJQsqaUBKTNV-1">
          <mxGeometry x="354" y="270" width="120" height="40" as="geometry" />
        </mxCell>
        <mxCell id="zbCJpAc25oDW_2lIFPGl-7" value="user requirement" style="shape=parallelogram;perimeter=parallelogramPerimeter;whiteSpace=wrap;html=1;fixedSize=1;" vertex="1" parent="WIyWlLk6GJQsqaUBKTNV-1">
          <mxGeometry x="110" y="370" width="120" height="40" as="geometry" />
        </mxCell>
        <mxCell id="zbCJpAc25oDW_2lIFPGl-8" value="Literature Review" style="shape=parallelogram;perimeter=parallelogramPerimeter;whiteSpace=wrap;html=1;fixedSize=1;" vertex="1" parent="WIyWlLk6GJQsqaUBKTNV-1">
          <mxGeometry x="650" y="370" width="120" height="40" as="geometry" />
        </mxCell>
        <mxCell id="zbCJpAc25oDW_2lIFPGl-10" value="" style="endArrow=classic;html=1;rounded=0;exitX=0.5;exitY=1;exitDx=0;exitDy=0;entryX=0.5;entryY=0;entryDx=0;entryDy=0;" edge="1" parent="WIyWlLk6GJQsqaUBKTNV-1" source="zbCJpAc25oDW_2lIFPGl-5" target="zbCJpAc25oDW_2lIFPGl-7">
          <mxGeometry width="50" height="50" relative="1" as="geometry">
            <mxPoint x="390" y="460" as="sourcePoint" />
            <mxPoint x="440" y="410" as="targetPoint" />
            <Array as="points">
              <mxPoint x="414" y="340" />
              <mxPoint x="170" y="340" />
            </Array>
          </mxGeometry>
        </mxCell>
        <mxCell id="zbCJpAc25oDW_2lIFPGl-11" value="" style="endArrow=classic;html=1;rounded=0;entryX=0.5;entryY=0;entryDx=0;entryDy=0;" edge="1" parent="WIyWlLk6GJQsqaUBKTNV-1" target="zbCJpAc25oDW_2lIFPGl-8">
          <mxGeometry width="50" height="50" relative="1" as="geometry">
            <mxPoint x="410" y="340" as="sourcePoint" />
            <mxPoint x="640" y="350" as="targetPoint" />
            <Array as="points">
              <mxPoint x="710" y="340" />
            </Array>
          </mxGeometry>
        </mxCell>
        <mxCell id="zbCJpAc25oDW_2lIFPGl-12" value="Select Technology" style="rhombus;whiteSpace=wrap;html=1;" vertex="1" parent="WIyWlLk6GJQsqaUBKTNV-1">
          <mxGeometry x="374" y="440" width="80" height="80" as="geometry" />
        </mxCell>
        <mxCell id="zbCJpAc25oDW_2lIFPGl-13" value="" style="endArrow=classic;html=1;rounded=0;exitX=0.408;exitY=1.025;exitDx=0;exitDy=0;exitPerimeter=0;entryX=0;entryY=0.5;entryDx=0;entryDy=0;" edge="1" parent="WIyWlLk6GJQsqaUBKTNV-1" source="zbCJpAc25oDW_2lIFPGl-7" target="zbCJpAc25oDW_2lIFPGl-12">
          <mxGeometry width="50" height="50" relative="1" as="geometry">
            <mxPoint x="230" y="500" as="sourcePoint" />
            <mxPoint x="280" y="450" as="targetPoint" />
            <Array as="points">
              <mxPoint x="160" y="480" />
            </Array>
          </mxGeometry>
        </mxCell>
        <mxCell id="zbCJpAc25oDW_2lIFPGl-14" value="" style="endArrow=classic;html=1;rounded=0;entryX=1;entryY=0.5;entryDx=0;entryDy=0;exitX=0.5;exitY=1;exitDx=0;exitDy=0;" edge="1" parent="WIyWlLk6GJQsqaUBKTNV-1" source="zbCJpAc25oDW_2lIFPGl-8" target="zbCJpAc25oDW_2lIFPGl-12">
          <mxGeometry width="50" height="50" relative="1" as="geometry">
            <mxPoint x="650" y="550" as="sourcePoint" />
            <mxPoint x="700" y="500" as="targetPoint" />
            <Array as="points">
              <mxPoint x="710" y="480" />
            </Array>
          </mxGeometry>
        </mxCell>
        <mxCell id="zbCJpAc25oDW_2lIFPGl-16" value="" style="endArrow=classic;html=1;rounded=0;exitX=0.5;exitY=0;exitDx=0;exitDy=0;entryX=0;entryY=0.5;entryDx=0;entryDy=0;" edge="1" parent="WIyWlLk6GJQsqaUBKTNV-1" source="zbCJpAc25oDW_2lIFPGl-12" target="zbCJpAc25oDW_2lIFPGl-8">
          <mxGeometry relative="1" as="geometry">
            <mxPoint x="390" y="380" as="sourcePoint" />
            <mxPoint x="490" y="380" as="targetPoint" />
            <Array as="points">
              <mxPoint x="414" y="390" />
            </Array>
          </mxGeometry>
        </mxCell>
        <mxCell id="zbCJpAc25oDW_2lIFPGl-17" value="No" style="edgeLabel;resizable=0;html=1;align=center;verticalAlign=middle;" connectable="0" vertex="1" parent="zbCJpAc25oDW_2lIFPGl-16">
          <mxGeometry relative="1" as="geometry" />
        </mxCell>
        <mxCell id="zbCJpAc25oDW_2lIFPGl-24" style="edgeStyle=orthogonalEdgeStyle;rounded=0;orthogonalLoop=1;jettySize=auto;html=1;exitX=0.5;exitY=1;exitDx=0;exitDy=0;entryX=0.5;entryY=0;entryDx=0;entryDy=0;" edge="1" parent="WIyWlLk6GJQsqaUBKTNV-1" source="zbCJpAc25oDW_2lIFPGl-18" target="zbCJpAc25oDW_2lIFPGl-23">
          <mxGeometry relative="1" as="geometry" />
        </mxCell>
        <mxCell id="zbCJpAc25oDW_2lIFPGl-18" value="Satisfy" style="rhombus;whiteSpace=wrap;html=1;" vertex="1" parent="WIyWlLk6GJQsqaUBKTNV-1">
          <mxGeometry x="374" y="600" width="80" height="80" as="geometry" />
        </mxCell>
        <mxCell id="zbCJpAc25oDW_2lIFPGl-19" value="" style="endArrow=classic;html=1;rounded=0;exitX=0.5;exitY=1;exitDx=0;exitDy=0;" edge="1" parent="WIyWlLk6GJQsqaUBKTNV-1" source="zbCJpAc25oDW_2lIFPGl-12" target="zbCJpAc25oDW_2lIFPGl-18">
          <mxGeometry relative="1" as="geometry">
            <mxPoint x="390" y="730" as="sourcePoint" />
            <mxPoint x="490" y="730" as="targetPoint" />
          </mxGeometry>
        </mxCell>
        <mxCell id="zbCJpAc25oDW_2lIFPGl-20" value="yes" style="edgeLabel;resizable=0;html=1;align=center;verticalAlign=middle;" connectable="0" vertex="1" parent="zbCJpAc25oDW_2lIFPGl-19">
          <mxGeometry relative="1" as="geometry" />
        </mxCell>
        <mxCell id="zbCJpAc25oDW_2lIFPGl-21" value="" style="endArrow=classic;html=1;rounded=0;exitX=1;exitY=0.5;exitDx=0;exitDy=0;entryX=1;entryY=1;entryDx=0;entryDy=0;" edge="1" parent="WIyWlLk6GJQsqaUBKTNV-1" source="zbCJpAc25oDW_2lIFPGl-18" target="zbCJpAc25oDW_2lIFPGl-12">
          <mxGeometry width="50" height="50" relative="1" as="geometry">
            <mxPoint x="420" y="750" as="sourcePoint" />
            <mxPoint x="470" y="700" as="targetPoint" />
            <Array as="points">
              <mxPoint x="510" y="640" />
              <mxPoint x="510" y="500" />
            </Array>
          </mxGeometry>
        </mxCell>
        <mxCell id="zbCJpAc25oDW_2lIFPGl-22" value="No" style="edgeLabel;resizable=0;html=1;align=center;verticalAlign=middle;" connectable="0" vertex="1" parent="WIyWlLk6GJQsqaUBKTNV-1">
          <mxGeometry x="509.99529411764706" y="559.9999999999998" as="geometry" />
        </mxCell>
        <mxCell id="zbCJpAc25oDW_2lIFPGl-23" value="Implementation" style="shape=parallelogram;perimeter=parallelogramPerimeter;whiteSpace=wrap;html=1;fixedSize=1;" vertex="1" parent="WIyWlLk6GJQsqaUBKTNV-1">
          <mxGeometry x="354" y="740" width="120" height="50" as="geometry" />
        </mxCell>
        <mxCell id="zbCJpAc25oDW_2lIFPGl-25" value="" style="endArrow=classic;html=1;rounded=0;exitX=0.5;exitY=1;exitDx=0;exitDy=0;" edge="1" parent="WIyWlLk6GJQsqaUBKTNV-1" source="zbCJpAc25oDW_2lIFPGl-23" target="zbCJpAc25oDW_2lIFPGl-26">
          <mxGeometry width="50" height="50" relative="1" as="geometry">
            <mxPoint x="420" y="750" as="sourcePoint" />
            <mxPoint x="414" y="850" as="targetPoint" />
          </mxGeometry>
        </mxCell>
        <mxCell id="zbCJpAc25oDW_2lIFPGl-29" style="edgeStyle=orthogonalEdgeStyle;rounded=0;orthogonalLoop=1;jettySize=auto;html=1;exitX=1;exitY=0.5;exitDx=0;exitDy=0;entryX=0;entryY=0.5;entryDx=0;entryDy=0;" edge="1" parent="WIyWlLk6GJQsqaUBKTNV-1" source="zbCJpAc25oDW_2lIFPGl-26" target="zbCJpAc25oDW_2lIFPGl-28">
          <mxGeometry relative="1" as="geometry" />
        </mxCell>
        <mxCell id="zbCJpAc25oDW_2lIFPGl-26" value="plan" style="shape=parallelogram;perimeter=parallelogramPerimeter;whiteSpace=wrap;html=1;fixedSize=1;" vertex="1" parent="WIyWlLk6GJQsqaUBKTNV-1">
          <mxGeometry x="354" y="840" width="120" height="40" as="geometry" />
        </mxCell>
        <mxCell id="zbCJpAc25oDW_2lIFPGl-27" value="End" style="rounded=1;whiteSpace=wrap;html=1;" vertex="1" parent="WIyWlLk6GJQsqaUBKTNV-1">
          <mxGeometry x="370" y="1100" width="120" height="40" as="geometry" />
        </mxCell>
        <mxCell id="zbCJpAc25oDW_2lIFPGl-31" value="" style="edgeStyle=orthogonalEdgeStyle;rounded=0;orthogonalLoop=1;jettySize=auto;html=1;" edge="1" parent="WIyWlLk6GJQsqaUBKTNV-1" source="zbCJpAc25oDW_2lIFPGl-28" target="zbCJpAc25oDW_2lIFPGl-30">
          <mxGeometry relative="1" as="geometry" />
        </mxCell>
        <mxCell id="zbCJpAc25oDW_2lIFPGl-28" value="Build" style="shape=parallelogram;perimeter=parallelogramPerimeter;whiteSpace=wrap;html=1;fixedSize=1;" vertex="1" parent="WIyWlLk6GJQsqaUBKTNV-1">
          <mxGeometry x="530" y="840" width="120" height="40" as="geometry" />
        </mxCell>
        <mxCell id="zbCJpAc25oDW_2lIFPGl-33" value="" style="edgeStyle=orthogonalEdgeStyle;rounded=0;orthogonalLoop=1;jettySize=auto;html=1;" edge="1" parent="WIyWlLk6GJQsqaUBKTNV-1" source="zbCJpAc25oDW_2lIFPGl-30" target="zbCJpAc25oDW_2lIFPGl-32">
          <mxGeometry relative="1" as="geometry" />
        </mxCell>
        <mxCell id="zbCJpAc25oDW_2lIFPGl-30" value="Test" style="shape=parallelogram;perimeter=parallelogramPerimeter;whiteSpace=wrap;html=1;fixedSize=1;" vertex="1" parent="WIyWlLk6GJQsqaUBKTNV-1">
          <mxGeometry x="730" y="840" width="120" height="40" as="geometry" />
        </mxCell>
        <mxCell id="zbCJpAc25oDW_2lIFPGl-35" value="" style="edgeStyle=orthogonalEdgeStyle;rounded=0;orthogonalLoop=1;jettySize=auto;html=1;" edge="1" parent="WIyWlLk6GJQsqaUBKTNV-1" source="zbCJpAc25oDW_2lIFPGl-32" target="zbCJpAc25oDW_2lIFPGl-34">
          <mxGeometry relative="1" as="geometry" />
        </mxCell>
        <mxCell id="zbCJpAc25oDW_2lIFPGl-38" style="edgeStyle=orthogonalEdgeStyle;rounded=0;orthogonalLoop=1;jettySize=auto;html=1;exitX=0;exitY=0.5;exitDx=0;exitDy=0;entryX=0.5;entryY=1;entryDx=0;entryDy=0;" edge="1" parent="WIyWlLk6GJQsqaUBKTNV-1" source="zbCJpAc25oDW_2lIFPGl-32" target="zbCJpAc25oDW_2lIFPGl-26">
          <mxGeometry relative="1" as="geometry" />
        </mxCell>
        <mxCell id="zbCJpAc25oDW_2lIFPGl-32" value="Review" style="shape=parallelogram;perimeter=parallelogramPerimeter;whiteSpace=wrap;html=1;fixedSize=1;" vertex="1" parent="WIyWlLk6GJQsqaUBKTNV-1">
          <mxGeometry x="730" y="920" width="120" height="40" as="geometry" />
        </mxCell>
        <mxCell id="zbCJpAc25oDW_2lIFPGl-40" style="edgeStyle=orthogonalEdgeStyle;rounded=0;orthogonalLoop=1;jettySize=auto;html=1;exitX=0;exitY=0.5;exitDx=0;exitDy=0;entryX=0.25;entryY=1;entryDx=0;entryDy=0;" edge="1" parent="WIyWlLk6GJQsqaUBKTNV-1" source="zbCJpAc25oDW_2lIFPGl-34" target="zbCJpAc25oDW_2lIFPGl-26">
          <mxGeometry relative="1" as="geometry" />
        </mxCell>
        <mxCell id="zbCJpAc25oDW_2lIFPGl-43" value="" style="edgeStyle=orthogonalEdgeStyle;rounded=0;orthogonalLoop=1;jettySize=auto;html=1;" edge="1" parent="WIyWlLk6GJQsqaUBKTNV-1" source="zbCJpAc25oDW_2lIFPGl-34" target="zbCJpAc25oDW_2lIFPGl-42">
          <mxGeometry relative="1" as="geometry" />
        </mxCell>
        <mxCell id="zbCJpAc25oDW_2lIFPGl-34" value="Next Sprint" style="shape=parallelogram;perimeter=parallelogramPerimeter;whiteSpace=wrap;html=1;fixedSize=1;" vertex="1" parent="WIyWlLk6GJQsqaUBKTNV-1">
          <mxGeometry x="730" y="1000" width="120" height="40" as="geometry" />
        </mxCell>
        <mxCell id="zbCJpAc25oDW_2lIFPGl-37" value="Pass" style="edgeLabel;resizable=0;html=1;align=center;verticalAlign=middle;" connectable="0" vertex="1" parent="WIyWlLk6GJQsqaUBKTNV-1">
          <mxGeometry x="790" y="979.9999999999998" as="geometry" />
        </mxCell>
        <mxCell id="zbCJpAc25oDW_2lIFPGl-39" value="Fail" style="edgeLabel;resizable=0;html=1;align=center;verticalAlign=middle;" connectable="0" vertex="1" parent="WIyWlLk6GJQsqaUBKTNV-1">
          <mxGeometry x="570" y="939.9999999999998" as="geometry" />
        </mxCell>
        <mxCell id="zbCJpAc25oDW_2lIFPGl-41" value="Has" style="edgeLabel;resizable=0;html=1;align=center;verticalAlign=middle;" connectable="0" vertex="1" parent="WIyWlLk6GJQsqaUBKTNV-1">
          <mxGeometry x="530" y="1019.9999999999998" as="geometry" />
        </mxCell>
        <mxCell id="zbCJpAc25oDW_2lIFPGl-45" style="edgeStyle=orthogonalEdgeStyle;rounded=0;orthogonalLoop=1;jettySize=auto;html=1;exitX=0;exitY=0.5;exitDx=0;exitDy=0;entryX=1;entryY=0.5;entryDx=0;entryDy=0;" edge="1" parent="WIyWlLk6GJQsqaUBKTNV-1" source="zbCJpAc25oDW_2lIFPGl-42" target="zbCJpAc25oDW_2lIFPGl-27">
          <mxGeometry relative="1" as="geometry" />
        </mxCell>
        <mxCell id="zbCJpAc25oDW_2lIFPGl-42" value="Conclusion" style="shape=parallelogram;perimeter=parallelogramPerimeter;whiteSpace=wrap;html=1;fixedSize=1;" vertex="1" parent="WIyWlLk6GJQsqaUBKTNV-1">
          <mxGeometry x="730" y="1080" width="120" height="40" as="geometry" />
        </mxCell>
        <mxCell id="zbCJpAc25oDW_2lIFPGl-44" value="Hasn&#39;t" style="edgeLabel;resizable=0;html=1;align=center;verticalAlign=middle;" connectable="0" vertex="1" parent="WIyWlLk6GJQsqaUBKTNV-1">
          <mxGeometry x="790" y="1059.9999999999998" as="geometry" />
        </mxCell>
      </root>
    </mxGraphModel>
  </diagram>
</mxfile>
